<svg height="511.99999pt" viewBox="1 1 511.99999 511.99999" width="511.99999pt" xmlns="http://www.w3.org/2000/svg"><path d="m16 256v176c0 35.347656 28.652344 64 64 64h192v-240zm0 0" fill="#bddbff"/><path d="m80 16c-35.347656 0-64 28.652344-64 64v176h256v-240zm0 0" fill="#bddbff"/><path d="m432 16h-160v480h160c35.347656 0 64-28.652344 64-64v-352c0-35.347656-28.652344-64-64-64zm0 0" fill="#bddbff"/><g fill="#3d9ae2"><path d="m432 0h-352c-44.160156.0507812-79.9492188 35.839844-80 80v352c.0507812 44.160156 35.839844 79.949219 80 80h352c44.160156-.050781 79.949219-35.839844 80-80v-352c-.050781-44.160156-35.839844-79.9492188-80-80zm-352 32h176v208h-224v-160c0-26.507812 21.492188-48 48-48zm-48 400v-160h224v208h-176c-26.507812 0-48-21.488281-48-48zm448 0c0 26.507812-21.488281 48-48 48h-144v-448h144c26.507812 0 48 21.488281 48 48zm0 0"/><path d="m80 352h128v32h-128zm0 0"/><path d="m320 272h128v32h-128zm0 0"/><path d="m320 208h128v32h-128zm0 0"/><path d="m128 208h32v-48h48v-32h-48v-48h-32v48h-48v32h48zm0 0"/></g></svg>